<?xml version="1.0" encoding="UTF-8"?>
<svg id="Gesamt_Kopf" data-name="Gesamt Kopf" xmlns="http://www.w3.org/2000/svg" viewBox="0 0 229.14 235.46">
  <defs>
    <style>
      .cls-1 {
        fill: #7fd2ff;
      }

      .cls-2 {
        fill: #8b9bb0;
      }

      .cls-3 {
        fill: #a0b0c4;
      }

      .cls-4 {
        fill: #eaeaea;
      }

      .cls-5 {
        fill: #5a6a7e;
      }
    </style>
  </defs>
  <g id="Links">
    <path id="Kopf" d="M118.12,21.29c-12.92-.59-35.22,3.59-46.88,8.71C55.62,18.54,41.42,1.21,21.61,3.78-1.11,13.87,7.52,47.92,17.5,59.29c-1.63,10.32,4.5,26.26,13.06,30.47-6.6,30.39-7.88,63.08,19.76,81.19,7.99,4.15,11.74,15.76,15.73,21.93,5.52,7.56,9.24,14.7,18.75,17.74,3.56,13.59,21.66,23.23,33.38,20.59.01-69.98.03-139.95.04-209.93"/>
    <path id="Nase" class="cls-3" d="M118.14,177.23c-.18,2.51-.79,5.51-1.73,7.97-.11.24-.26.57-.49.67-1.95.24-4.34-1.83-5.09-3.54-.65-1.26.5-2.7.25-4.18-.37-2.92-3.54-5.68-6.33-6.89-1.53-.72-2.54.43-4.04.17-1.01-.07-2.2-1.3-2.28-2.2-.04-.35.17-.58.55-.86,1.01-.72,2.21-1.28,3.44-1.49,3.68-.75,6.83,1.91,10.23,2.63,1.84.33,3.68.66,5.52.99"/>
    <path id="Schnauze" class="cls-3" d="M112.07,188.93c.34.19,2.35,1.36,2.79,3.7.42,2.23-.87,3.95-1.4,4.67-.96,1.28-2.06,1.85-4.21,2.94-.53.27-2.85,1.42-6.47,2.38-1.2.32-3.1.81-5.67,1.07-2.07.21-4.23.4-6.91-.19-2.45-.55-3.6-1.37-4.17-1.84-.73-.61-1.22-1.23-1.53-1.69.97,0,2.49-.12,4.22-.78,1.71-.65,2.92-1.55,3.64-2.19-2.31.35-4.27.39-5.73.34-3.1-.1-4.85-.61-5.37-.77-2.25-.7-3.16-1.51-3.42-1.76-.95-.89-1.43-1.89-1.68-2.52,2.53.52,5.93.94,9.93.67,2.94-.2,5.48-.72,7.51-1.29-1.6-.04-3.9-.16-6.67-.5-.96-.12-1.83-.23-2.97-.45-2.44-.46-4.9-.95-7.53-2.4-1.53-.85-2.75-1.54-3.67-3.04-.78-1.27-.99-2.54-1.05-3.33,2.14,1.08,5.12,2.31,8.83,3.06,4.44.89,8.25.75,10.88.45-1.25-.26-2.91-.64-4.82-1.23-1.25-.38-3.3-1.02-5.83-2.19-.6-.28-3.27-1.52-6.28-3.76-1.7-1.26-2.45-2.24-2.86-3.48-.32-.99-.31-1.88-.25-2.46,2.09,1.12,4.83,2.33,8.16,3.24,3.95,1.08,7.45,1.38,10.09,1.4-2.42-.92-4.39-1.84-5.83-2.58-3.95-2.01-5.42-3.32-5.89-3.76-1.39-1.29-2.44-2.26-2.92-3.9-.73-2.49.37-4.75.79-5.52.86-1.63,1.77-3.29,2.75-4.99,1.1-1.92,2.21-3.75,3.31-5.5,1.94-2.38,4.07-5.36,6.06-8.97,2.51-4.56,4.09-8.81,5.1-12.28.31,1.28.58,2.65.79,4.09.74,5.07.52,9.6,0,13.29-.82,5.33-1.64,10.65-2.47,15.98-.21,1.35-.38,3.36.34,5.78.86,2.91,2.64,4.91,3.86,6.04.86.75,2.21,1.82,4.04,2.83,2.07,1.13,2.66,1.04,3.98,2.06.8.62,1.67,1.79,3.39,4.13,1.35,1.83,1.78,2.57,2.91,3.59.86.78,1.67,1.32,2.24,1.65Z"/>
    <path id="Gesicht" class="cls-3" d="M65.31,152.73c-.7-1.23-2.21-4.32-5.38-6.88-1.91-1.54-4.38-3.82-6.75-6.98-3.37-4.49-4.89-8.53-5.24-9.48-1.75-4.81-1.89-8.53-2.08-13.48,0,0-.22-5.86,1.69-10.61.39-.96.99-2.15,2.24-2.76,1.06-.51,2.13-.4,2.72-.28.06,2.21.4,5.2,1.57,8.51.26.75,1.22,3.37,3.22,6.37,1.13,1.7,2.16,3.26,4.06,4.79,1.53,1.24,2.88,1.87,4.84,2.78,1.55.72,3.21,1.48,5.52,1.97.77.17,2.58.54,4.93.51,2.2-.03,3.17-.39,5.19,0,.82.16,1.65.32,2.54.83,2.15,1.24,2.91,3.56,3.17,4.51-.55,1.6-1.45,3.98-2.82,6.74-2.11,4.26-4.01,6.75-7.93,12.33-1.67,2.38-4.13,5.91-7.11,10.34-.14.05-.36.09-.57,0"/>
    <path id="Schatten_hellgrau" data-name="Schatten hellgrau" class="cls-2" d="M50.34,141.89c-2.59-2.65-6.11-6.88-8.93-12.84-3.24-6.87-4.15-13.09-4.42-17.03-.53,3.42-.9,7.63-.74,12.43.17,4.92.87,9.18,1.66,12.61.62,2.71,1.81,6.58,4.23,10.77,1.71,2.94,3.31,4.99,5.52,7.46,2.53,2.81,5.38,5.75,8.56,8.74,3.07,2.88,6.07,5.45,8.93,7.73.13-2.15.08-5.05-.64-8.38-.94-4.31-2.65-7.58-3.96-9.66-1.21-1.76-2.61-3.64-4.23-5.57-2.05-2.43-4.08-4.5-5.98-6.26Z"/>
    <path id="Gesicht-2" data-name="Gesicht" class="cls-2" d="M118.2,95.21c0,21.33,0,42.66-.01,64-2.77-.14-5.19-.21-7.16-.24-3.76-.05-5.29.04-7.1.6-.87.27-2.14.68-3.5,1.67-.7.51-1.02.87-2.17,1.87-1.05.91-1.95,1.61-2.55,2.06-.55-.74-1.27-1.87-1.81-3.36-.5-1.39-.65-2.49-.82-4.16-.19-1.84-.29-3.91-.24-5.26.19-4.99,2.81-9.03,4.21-14.17,1.84-6.78.79-12.65.32-15.27-.92-5.1-2.72-8.89-4.53-12.66-2.04-4.27-3.06-6.4-5-8.6-5-5.64-11.91-7.57-14.06-8.14-5.74-1.53-11.26-1.25-14.01-4.23-.37-.4-1.39-1.51-1.7-3.22-.24-1.32.04-2.45.52-3.76.89-2.44,2.42-5.44,5.56-9.22.68-.82,1.78-2.14,3.45-3.73,2.75-2.63,5.38-4.44,7.35-5.62-5.78,2.11-10.22,4.6-13.27,6.56-3.96,2.54-11.54,7.51-17.6,16.78-1.91,2.92-3.18,5.52-3.97,7.32,0-1.19.06-2.93.38-4.98.49-3.12,1.33-5.45,2.08-7.38,2.07-5.32,3.54-9.1,6.43-14.19,5.34-9.4,11.04-15.36,12.3-16.65,2.49-2.57,5.06-5.22,9.15-8.01,3.15-2.16,11.72-7.88,23.22-8.14,5.5-.13,8.66,1.07,9.46,1.39,4.49,1.78,7.3,4.76,8.71,6.5l2.84,18.23c1.19,8.5,2.37,17,3.56,25.5,0,2.84,0,5.68,0,8.52"/>
    <path id="Schatten_schwarz" data-name="Schatten schwarz" class="cls-5" d="M90.92,70.56c.33,3.77-.4,7.69-.79,11.45-.51,5.74-1.29,11.65.21,17.31.1.76-.24.8-.79.49-5.43-3.17-7.27-9.59-6.87-15.24.23-3.63,2.49-7.72,4.46-9.79,1.14-1.21,3.08-3.98,3.74-4.25l.03.04Z"/>
    <path id="Ohr" class="cls-1" d="M19.38,18.56c6.1-2.5,11.91-1.35,16.97,3.81,4.88,4.23,9.3,10.67,13.53,15.99,1.12,1.53,2.3,2.84,3.19,4.25-5.05-.9-12.12-.88-16.77.34-.04.02-.12.06-.15.09,2.11.84,4.47,1.68,6.58,2.8,2.22,1.17,4.2,2.22,5.82,3.51-.3.54-1.26,1.12-1.77,1.73-6.34,6.14-9.84,15.48-9.13,24.21.1.98.11,1.81.31,2.48.67-1.47,1.26-2.99,2-4.5,5.25-11.85,16-24.26,27.09-32.02-4.55-4.86-9.92-9.54-14.83-13.84-7.05-5.91-15.77-13.58-24.07-13.51-3.51-.24-7.41,1.19-8.8,4.64l.02.02Z"/>
    <path id="Auge" class="cls-1" d="M60.05,97.92c-.57.99-1.23,2.4-1.66,4.18-.55,2.31-.47,4.29-.31,5.59.14,1.21.47,2.92,1.26,4.82.44,1.05,1.33,3.15,3.31,5.2,2.22,2.31,4.59,3.29,5.77,3.76,1.04.42,3.98,1.49,7.8,1.27,2.55-.15,4.41-.8,6.42-1.5,2.16-.76,3.29-1.43,3.82-1.77,1.25-.8,2.17-1.63,2.78-2.26,0-1.29-.14-4.54-2.27-7.86-2.25-3.51-5.36-5-6.54-5.5-.12,1.8-.52,3.25-.88,4.26-.38,1.08-.89,2.51-2.11,3.93-.8.94-2.27,2.67-3.68,2.36-.23-.05-.93-.26-2.05-2.53-.59-1.19-1.33-3.04-1.7-5.52-.17-1.14-.01-2.06.04-2.66.13-1.42.41-2.59.67-3.44-1.56-.71-3.63-1.46-6.12-1.91-1.7-.31-3.25-.42-4.56-.42Z"/>
    <ellipse id="Reflexion" class="cls-4" cx="69.79" cy="103.7" rx="2.51" ry="3.14" transform="translate(-38.57 166) rotate(-85.96)"/>
  </g>
  <g id="Rechts">
    <path id="Kopf-2" data-name="Kopf" d="M118.26,21.28c12.92-.59,35.22,3.59,46.88,8.71,15.62-11.45,29.82-28.78,49.63-26.22,22.71,10.1,14.08,44.14,4.11,55.52,1.63,10.32-4.5,26.26-13.06,30.47,6.6,30.39,7.88,63.08-19.76,81.19-7.99,4.15-11.74,15.76-15.73,21.93-5.52,7.56-9.24,14.7-18.75,17.74-3.56,13.59-21.66,23.23-33.38,20.59-.01-69.98-.03-139.95-.04-209.93"/>
    <path id="Nasse" class="cls-3" d="M118.16,177.22c.18,2.51.8,5.51,1.74,7.97.11.24.26.57.5.67,1.95.24,4.35-1.83,5.11-3.54.65-1.26-.5-2.7-.25-4.18.37-2.92,3.55-5.68,6.36-6.89,1.53-.72,2.54.43,4.06.17,1.02-.07,2.21-1.3,2.29-2.2.04-.35-.17-.58-.55-.86-1.02-.72-2.21-1.28-3.45-1.49-3.69-.75-6.85,1.91-10.27,2.63-1.85.33-3.7.66-5.54.99"/>
    <path id="Schnauze-2" data-name="Schnauze" class="cls-3" d="M124.3,188.92c-.34.19-2.35,1.36-2.79,3.7-.42,2.23.87,3.95,1.4,4.67.96,1.28,2.06,1.85,4.21,2.94.53.27,2.85,1.42,6.47,2.38,1.2.32,3.1.81,5.67,1.07,2.07.21,4.23.4,6.91-.19,2.45-.55,3.6-1.37,4.17-1.84.73-.61,1.22-1.23,1.53-1.69-.97,0-2.49-.12-4.22-.78-1.71-.65-2.92-1.55-3.64-2.19,2.31.35,4.27.39,5.73.34,3.1-.1,4.85-.61,5.37-.77,2.25-.7,3.16-1.51,3.42-1.76.95-.89,1.43-1.89,1.68-2.52-2.53.52-5.93.94-9.93.67-2.94-.2-5.48-.72-7.51-1.29,1.6-.04,3.9-.16,6.67-.5.96-.12,1.83-.23,2.97-.45,2.44-.46,4.9-.95,7.53-2.4,1.53-.85,2.75-1.54,3.67-3.04.78-1.27.99-2.54,1.05-3.33-2.14,1.08-5.12,2.31-8.83,3.06-4.44.89-8.25.75-10.88.45,1.25-.26,2.91-.64,4.82-1.23,1.25-.38,3.3-1.02,5.83-2.19.6-.28,3.27-1.52,6.28-3.76,1.7-1.26,2.45-2.24,2.86-3.48.32-.99.31-1.88.25-2.46-2.09,1.12-4.83,2.33-8.16,3.24-3.95,1.08-7.45,1.38-10.09,1.4,2.42-.92,4.39-1.84,5.83-2.58,3.95-2.01,5.42-3.32,5.89-3.76,1.39-1.29,2.44-2.26,2.92-3.9.73-2.49-.37-4.75-.79-5.52-.86-1.63-1.77-3.29-2.75-4.99-1.1-1.92-2.21-3.75-3.31-5.5-1.94-2.38-4.07-5.36-6.06-8.97-2.51-4.56-4.09-8.81-5.1-12.28-.31,1.28-.58,2.65-.79,4.09-.74,5.07-.52,9.6,0,13.29.82,5.33,1.64,10.65,2.47,15.98.21,1.35.38,3.36-.34,5.78-.86,2.91-2.64,4.91-3.86,6.04-.86.75-2.21,1.82-4.04,2.83-2.07,1.13-2.66,1.04-3.98,2.06-.8.62-1.67,1.79-3.39,4.13-1.35,1.83-1.78,2.57-2.91,3.59-.86.78-1.67,1.32-2.24,1.65Z"/>
    <path id="Gesicht-3" data-name="Gesicht" class="cls-3" d="M171.06,152.72c.7-1.23,2.21-4.32,5.38-6.88,1.91-1.54,4.38-3.82,6.75-6.98,3.37-4.49,4.89-8.53,5.24-9.48,1.75-4.81,1.89-8.53,2.08-13.48,0,0,.22-5.86-1.69-10.61-.39-.96-.99-2.15-2.24-2.76-1.06-.51-2.13-.4-2.72-.28-.06,2.21-.4,5.2-1.57,8.51-.26.75-1.22,3.37-3.22,6.37-1.13,1.7-2.16,3.26-4.06,4.79-1.53,1.24-2.88,1.87-4.84,2.78-1.55.72-3.21,1.48-5.52,1.97-.77.17-2.58.54-4.93.51-2.2-.03-3.17-.39-5.19,0-.82.16-1.65.32-2.54.83-2.15,1.24-2.91,3.56-3.17,4.51.55,1.6,1.45,3.98,2.82,6.74,2.11,4.26,4.01,6.75,7.93,12.33,1.67,2.38,4.13,5.91,7.11,10.34.14.05.36.09.57,0"/>
    <path id="Schatten_hellgrau-2" data-name="Schatten hellgrau" class="cls-2" d="M186.04,141.89c2.59-2.65,6.11-6.88,8.93-12.84,3.24-6.87,4.15-13.09,4.42-17.03.53,3.42.9,7.63.74,12.43-.17,4.92-.87,9.18-1.66,12.61-.62,2.71-1.81,6.58-4.23,10.77-1.71,2.94-3.31,4.99-5.52,7.46-2.53,2.81-5.38,5.75-8.56,8.74-3.07,2.88-6.07,5.45-8.93,7.73-.13-2.15-.08-5.05.64-8.38.94-4.31,2.65-7.58,3.96-9.66,1.21-1.76,2.61-3.64,4.23-5.57,2.05-2.43,4.08-4.5,5.98-6.26Z"/>
    <path id="Gesicht-4" data-name="Gesicht" class="cls-2" d="M118.17,95.2c0,21.33,0,42.66.01,64,2.77-.14,5.19-.21,7.16-.24,3.76-.05,5.29.04,7.1.6.87.27,2.14.68,3.5,1.67.7.51,1.02.87,2.17,1.87,1.05.91,1.95,1.61,2.55,2.06.55-.74,1.27-1.87,1.81-3.36.5-1.39.65-2.49.82-4.16.19-1.84.29-3.91.24-5.26-.19-4.99-2.81-9.03-4.21-14.17-1.84-6.78-.79-12.65-.32-15.27.92-5.1,2.72-8.89,4.53-12.66,2.04-4.27,3.06-6.4,5-8.6,5-5.64,11.91-7.57,14.06-8.14,5.74-1.53,11.26-1.25,14.01-4.23.37-.4,1.39-1.51,1.7-3.22.24-1.32-.04-2.45-.52-3.76-.89-2.44-2.42-5.44-5.56-9.22-.68-.82-1.78-2.14-3.45-3.73-2.75-2.63-5.38-4.44-7.35-5.62,5.78,2.11,10.22,4.6,13.27,6.56,3.96,2.54,11.54,7.51,17.6,16.78,1.91,2.92,3.18,5.52,3.97,7.32,0-1.19-.06-2.93-.38-4.98-.49-3.12-1.33-5.45-2.08-7.38-2.07-5.32-3.54-9.1-6.43-14.19-5.34-9.4-11.04-15.36-12.3-16.65-2.49-2.57-5.06-5.22-9.15-8.01-3.15-2.16-11.72-7.88-23.22-8.14-5.5-.13-8.66,1.07-9.46,1.39-4.49,1.78-7.3,4.76-8.71,6.5l-2.84,18.23c-1.19,8.5-2.37,17-3.56,25.5,0,2.84,0,5.68,0,8.52"/>
    <path id="Schatten_schwarz-2" data-name="Schatten schwarz" class="cls-5" d="M145.46,70.55c-.33,3.77.4,7.69.79,11.45.51,5.74,1.29,11.65-.21,17.31-.1.76.24.8.79.49,5.43-3.17,7.27-9.59,6.87-15.24-.23-3.63-2.49-7.72-4.46-9.79-1.14-1.21-3.08-3.98-3.74-4.25l-.03.04Z"/>
    <path id="Ohr-2" data-name="Ohr" class="cls-2" d="M217,18.56c-6.1-2.5-11.91-1.35-16.97,3.81-4.88,4.23-9.3,10.67-13.53,15.99-1.12,1.53-2.3,2.84-3.19,4.25,5.05-.9,12.12-.88,16.77.34.04.02.12.06.15.09-2.11.84-4.47,1.68-6.58,2.8-2.22,1.17-4.2,2.22-5.82,3.51.3.54,1.26,1.12,1.77,1.73,6.34,6.14,9.84,15.48,9.13,24.21-.1.98-.11,1.81-.31,2.48-.67-1.47-1.26-2.99-2-4.5-5.25-11.85-16-24.26-27.09-32.02,4.55-4.86,9.92-9.54,14.83-13.84,7.05-5.91,15.77-13.58,24.07-13.51,3.51-.24,7.41,1.19,8.8,4.64l-.02.02Z"/>
    <path id="Auge-2" data-name="Auge" class="cls-1" d="M175.96,98.08c.57.99,1.24,2.39,1.66,4.17.55,2.31.47,4.29.32,5.59-.14,1.21-.46,2.92-1.25,4.82-.44,1.05-1.33,3.15-3.31,5.2-2.22,2.31-4.59,3.29-5.76,3.77-1.04.42-3.97,1.49-7.8,1.27-2.55-.14-4.41-.79-6.42-1.49-2.16-.75-3.29-1.43-3.83-1.77-1.25-.79-2.17-1.63-2.79-2.26,0-1.29.14-4.54,2.27-7.86,2.24-3.51,5.36-5.01,6.53-5.51.12,1.8.52,3.25.88,4.26.39,1.08.9,2.51,2.11,3.93.8.94,2.27,2.67,3.69,2.36.23-.05.93-.26,2.05-2.53.59-1.19,1.33-3.04,1.7-5.52.17-1.14.01-2.06-.05-2.66-.13-1.42-.42-2.59-.67-3.44,1.56-.71,3.63-1.46,6.12-1.92,1.7-.31,3.25-.42,4.56-.43Z"/>
    <ellipse id="Reflexion-2" data-name="Reflexion" class="cls-4" cx="166.22" cy="103.86" rx="3.14" ry="2.51" transform="translate(-6.99 12.14) rotate(-4.1)"/>
  </g>
  <rect class="cls-2" x="118.15" y="86.69" width=".07" height="72.51"/>
  <rect class="cls-3" x="118.13" y="171.06" width=".07" height="6.11"/>
  <rect class="cls-5" x="115.38" y="219.31" width="5.92" height="11.86"/>
  <rect class="cls-2" x="118.1" y="158.94" width=".08" height=".26"/>
  <rect class="cls-5" x="115.03" y="195.74" width="5.83" height="35.38"/>
</svg>